<?xml version="1.0" encoding="utf-8"?>
<!-- Generator: Adobe Illustrator 24.1.0, SVG Export Plug-In . SVG Version: 6.00 Build 0)  -->
<svg version="1.1" xmlns="http://www.w3.org/2000/svg" xmlns:xlink="http://www.w3.org/1999/xlink" x="0px" y="0px"
	 viewBox="0 0 519.6 600" style="enable-background:new 0 0 519.6 600;" xml:space="preserve">
<style type="text/css">
	.st0{fill:#333333;}
	.st1{fill:#42CC3B;}
</style>
<g id="Background">
	<path class="st0" d="M498.9,138L302.5,24.6L259.8,0l-42.6,24.6L20.7,138L0,150v300l20.7,12l198.9,114.8l40.2,23.2l40.2-23.2
		L498.9,462l20.7-12V150L498.9,138z"/>
	<path id="Border" class="st1" d="M498.9,138L302.4,24.6L259.8,0l-42.6,24.6L20.7,138L0,150v300l20.7,12l198.8,114.8l40.2,23.2
		l40.2-23.2l199-114.8l20.7-12V150L498.9,138z M128.5,501L20.7,438.8V162.6l107.8-62.2V501z M498.9,438.7L259.8,576.8l-110.1-63.6
		v-265h349.2V438.7z M498.9,227H149.7V88.2l110.1-63.6l239.1,138V227z"/>
</g>
<g id="Text">
	<g>
		<path class="st1" d="M178.2,332.5v-10.6h5.3v5.3h5.3v5.3h15.9v-15.9h-21.3v-5.3h-5.3v-15.9h5.3V290h10.6v-10.6h10.6V290h5.3v5.3
			h5.3v10.6h-5.3v-5.3h-5.3v-5.3h-15.9v15.9h21.3v5.3h5.3v15.9h-5.3v5.3h-5.3v10.6h-10.6v-10.6h-10.6v-5.3H178.2z"/>
		<path class="st1" d="M263.2,311.2v-5.3h10.6v-10.6h5.3V290h5.3v15.9h10.6v5.3h-10.6v21.3h5.3v-5.3h10.6v5.3h-5.3v5.3h-15.9v-5.3
			h-5.3v-21.3H263.2z"/>
		<path class="st1" d="M305.7,337.8v-31.9h15.9v5.3h5.3v-5.3h10.6v5.3h5.3v26.6h-10.6v-21.3H327v15.9h-5.3v-15.9h-5.3v21.3H305.7z"
			/>
		<path class="st1" d="M348.3,332.5v-26.6h10.6v26.6h10.6v5.3h-15.9v-5.3H348.3z M369.5,332.5v-26.6h10.6v26.6h5.3v5.3h-10.6v-5.3
			H369.5z"/>
		<path class="st1" d="M390.8,337.8v-5.3h5.3v-5.3h5.3v-10.6h-5.3v-5.3h-5.3v-5.3h10.6v5.3h5.3v5.3h5.3v-5.3h5.3v-5.3H428v5.3h-5.3
			v5.3h-5.3v10.6h5.3v5.3h5.3v5.3h-10.6v-5.3H412v-5.3h-5.3v5.3h-5.3v5.3H390.8z"/>
		<path class="st1" d="M433.3,337.8v-5.3h5.3v-21.3h-5.3v-5.3h10.6v5.3h5.3v-5.3h15.9v5.3h5.3v10.6h-10.6v-10.6h-5.3v5.3h-5.3v15.9
			h5.3v5.3H433.3z"/>
	</g>
</g>
</svg>
