<?xml version="1.0" encoding="utf-8"?>
<!-- Generator: Adobe Illustrator 24.1.0, SVG Export Plug-In . SVG Version: 6.00 Build 0)  -->
<svg version="1.1" id="Layer_1" xmlns="http://www.w3.org/2000/svg" xmlns:xlink="http://www.w3.org/1999/xlink" x="0px" y="0px"
	 viewBox="0 0 519.6 600" style="enable-background:new 0 0 519.6 600;" xml:space="preserve">
<style type="text/css">
	.st0{clip-path:url(#SVGID_2_);}
	.st1{fill:#333333;}
	.st2{opacity:0.25;fill:url(#SVGID_3_);enable-background:new    ;}
	.st3{fill:#42CC3B;}
</style>
<g>
	<g>
		<defs>
			<polygon id="SVGID_1_" points="261.2,3.9 514.9,150.3 514.9,448.8 261.2,596.1 1.9,448.8 1.9,150.3 			"/>
		</defs>
		<clipPath id="SVGID_2_">
			<use xlink:href="#SVGID_1_"  style="overflow:visible;"/>
		</clipPath>
		<g class="st0">
			<circle class="st1" cx="258.4" cy="307.9" r="312.6"/>
			
				<linearGradient id="SVGID_3_" gradientUnits="userSpaceOnUse" x1="258.9268" y1="-239.9246" x2="259.8461" y2="87.8444" gradientTransform="matrix(1 0 0 1 0 152)">
				<stop  offset="0" style="stop-color:#FFFFFF;stop-opacity:0.83"/>
				<stop  offset="0.56" style="stop-color:#FFFFFF;stop-opacity:0.37"/>
				<stop  offset="1" style="stop-color:#FFFFFF;stop-opacity:0"/>
			</linearGradient>
			<ellipse class="st2" cx="259.4" cy="73.4" rx="222.9" ry="165.9"/>
		</g>
	</g>
</g>
<g id="Layer_2_1_">
	<path class="st3" d="M498.9,138L302.4,24.6L259.8,0l-42.6,24.6L20.7,138L0,150v300l20.7,12l198.8,114.8l40.2,23.2l40.2-23.2
		L498.9,462l20.7-12V150L498.9,138z M259.8,24.6l239.1,138v64.4H149.7V88.2L259.8,24.6z M20.7,162.6l107.8-62.2V501L20.7,438.8
		V162.6z M259.8,576.8l-110.1-63.6v-265h349.2v190.5L259.8,576.8z"/>
</g>
<g>
	<path class="st3" d="M184.6,291.3c0-2.9,2.4-4.7,6.5-4.7c4.5,0,7.1,1.4,10.5,4l4.3-4.9c-3-3-6.6-5.3-11.8-5.8v-9.6h-5.8v9.7
		c-7.3,1-12.1,5.3-12.1,11.6c0,13.2,22.4,11.9,22.4,19.5c0,2.9-2.5,4.8-7.1,4.8c-5.1,0-9.3-2-13.5-4.8l-3.8,5.8
		c3.6,3,9,5.3,14.1,5.8v10.7h5.8v-10.9c8-1.1,12.8-5.9,12.8-12.1C207,296.8,184.6,297.9,184.6,291.3z"/>
	<path class="st3" d="M288.2,319.3c-6.1,0-8.4-2.7-8.4-8.7v-14.9h16.5V289h-16.5v-11.3h-7.1l-1.1,11.3l-10,0.4v6.4h9.7v14.9
		c0,9.2,3.8,15.4,14.8,15.4c4.7,0,8.3-1,11.6-2.1l-1.7-6.2C293.7,318.7,291.2,319.3,288.2,319.3z"/>
	<path class="st3" d="M335.2,288.1c-4.2,0-6.6,2.5-8.2,6.1c-1-4-3.2-6.1-6.6-6.1c-4.2,0-6.4,2.4-8,5.5h-0.2l-0.7-4.6h-6.5v36.2h8.2
		v-25.3c1.4-3,2.6-4.5,4.5-4.5c2,0,2.9,1.6,2.9,4.8v25h7.1v-25.3c1.5-3,2.6-4.5,4.5-4.5c2,0,2.9,1.6,2.9,4.8v25h8.2v-25.6
		C343.2,292.3,340.3,288.1,335.2,288.1z"/>
	<path class="st3" d="M375.2,313.4c-3.2,3.9-5.7,5.3-9.1,5.3c-4.9,0-6.8-2.7-6.8-8.5V289h-8.5v22.4c0,9.3,3.7,14.7,12.1,14.7
		c5.4,0,9.4-2.7,12.8-6.6h0.3l0.7,5.8h7V289h-8.5V313.4z"/>
	<path class="st3" d="M429.5,289h-8.9l-4.3,6.8c-1.1,2-2.4,4.2-3.5,6.2h-0.3c-1.3-2-2.8-4.1-4-6.2l-4.7-6.8h-9.2l12.2,17.4
		l-13.1,18.8h8.9l4.7-7.1c1.3-2.2,2.6-4.4,3.9-6.5h0.3c1.4,2.1,3,4.4,4.4,6.4l5.2,7.1h9.3l-13.2-17.9L429.5,289z"/>
	<path class="st3" d="M467.1,288.1c-6.2,0-11.7,3.2-15.4,9.1h-0.2l-0.7-8.2h-7v36.2h8.5v-20c3.7-7,8.6-9.6,13.5-9.6
		c2.7,0,4.2,0.4,6.6,1.1l1.8-7.2C472,288.6,470,288.1,467.1,288.1z"/>
</g>
</svg>
