<svg xmlns="http://www.w3.org/2000/svg" viewBox="0 0 519.6 600"><defs><style>.a{fill:#333;}.b{fill:#42cc3b;}</style></defs><path class="a" d="M498.9,138,302.5,24.6,259.8,0,217.2,24.6,20.7,138,0,150V450l20.7,12L219.6,576.8,259.8,600,300,576.8,498.9,462l20.7-12V150Z"/><path class="b" d="M498.9,138,302.4,24.6,259.8,0,217.2,24.6,20.7,138,0,150V450l20.7,12L219.5,576.8,259.7,600l40.2-23.2L498.9,462l20.7-12V150ZM128.5,501,20.7,438.8V162.6l107.8-62.2Zm370.4-62.3L259.8,576.8,149.7,513.2v-265H498.9Zm0-211.7H149.7V88.2L259.8,24.6l239.1,138Z"/><path class="b" d="M178.2,332.5V321.9h5.3v5.3h5.3v5.3h15.9V316.6H183.4v-5.3h-5.3V295.4h5.3V290H194V279.4h10.6V290h5.3v5.3h5.3v10.6h-5.3v-5.3h-5.3v-5.3H188.7v15.9H210v5.3h5.3v15.9H210v5.3h-5.3v10.6H194.1V337.7H183.5v-5.3h-5.3Z"/><path class="b" d="M263.2,311.2v-5.3h10.6V295.3h5.3V290h5.3v15.9H295v5.3H284.4v21.3h5.3v-5.3h10.6v5.3H295v5.3H279.1v-5.3h-5.3V311.2Z"/><path class="b" d="M305.7,337.8V305.9h15.9v5.3h5.3v-5.3h10.6v5.3h5.3v26.6H332.2V316.5H327v15.9h-5.3V316.5h-5.3v21.3Z"/><path class="b" d="M348.3,332.5V305.9h10.6v26.6h10.6v5.3H353.6v-5.3Zm21.2,0V305.9h10.6v26.6h5.3v5.3H374.8v-5.3Z"/><path class="b" d="M390.8,337.8v-5.3h5.3v-5.3h5.3V316.6h-5.3v-5.3h-5.3V306h10.6v5.3h5.3v5.3H412v-5.3h5.3V306H428v5.3h-5.3v5.3h-5.3v10.6h5.3v5.3H428v5.3H417.4v-5.3H412v-5.3h-5.3v5.3h-5.3v5.3Z"/><path class="b" d="M433.3,337.8v-5.3h5.3V311.2h-5.3v-5.3h10.6v5.3h5.3v-5.3h15.9v5.3h5.3v10.6H459.8V311.2h-5.3v5.3h-5.3v15.9h5.3v5.3H433.3Z"/></svg>